HIERARCHY
ROOT Hips
{
	OFFSET 0.053599 88.859886 3.107447
	CHANNELS 6 Xposition Yposition Zposition Zrotation Yrotation Xrotation 
	JOINT Spine
	{
		OFFSET -0.000000 8.814246 -2.080107
		CHANNELS 3 Zrotation Yrotation Xrotation
		JOINT Spine1
		{
			OFFSET 0.000000 8.844141 0.000000
			CHANNELS 3 Zrotation Yrotation Xrotation
			JOINT Spine2
			{
				OFFSET -0.000000 11.682268 0.000000
				CHANNELS 3 Zrotation Yrotation Xrotation
				JOINT Spine3
				{
					OFFSET 0.000000 11.746700 0.000000
					CHANNELS 3 Zrotation Yrotation Xrotation
					JOINT Neck
					{
						OFFSET -0.000000 17.658264 -0.000000
						CHANNELS 3 Zrotation Yrotation Xrotation
						JOINT Neck1
						{
							OFFSET -0.000000 5.101515 -0.000000
							CHANNELS 3 Zrotation Yrotation Xrotation
							JOINT Head
							{
								OFFSET 0.000000 5.101515 0.000000
								CHANNELS 3 Zrotation Yrotation Xrotation
								JOINT HeadEnd
								{
									OFFSET 0.000000 11.655085 0.000000
									CHANNELS 3 Zrotation Yrotation Xrotation
									End Site
									{
										OFFSET 0.000000 0.000000 0.000000
									}
								}
							}
						}
					}
					JOINT RightShoulder
					{
						OFFSET -2.625389 11.175210 0.000000
						CHANNELS 3 Zrotation Yrotation Xrotation
						JOINT RightArm
						{
							OFFSET -0.000000 10.434715 -0.000000
							CHANNELS 3 Zrotation Yrotation Xrotation
							JOINT RightForeArm
							{
								OFFSET -0.000000 29.628420 0.000000
								CHANNELS 3 Zrotation Yrotation Xrotation
								JOINT RightHand
								{
									OFFSET -0.000000 22.857611 0.000000
									CHANNELS 3 Zrotation Yrotation Xrotation
									JOINT RightHandThumb1
									{
										OFFSET -2.867323 3.959563 2.944291
										CHANNELS 3 Zrotation Yrotation Xrotation
										JOINT RightHandThumb2
										{
											OFFSET 0.000000 3.350399 0.000000
											CHANNELS 3 Zrotation Yrotation Xrotation
											JOINT RightHandThumb3
											{
												OFFSET 0.000000 3.756509 -0.000000
												CHANNELS 3 Zrotation Yrotation Xrotation
												JOINT RightHandThumb4
												{
													OFFSET 0.000000 3.147345 0.000000
													CHANNELS 3 Zrotation Yrotation Xrotation
													End Site
													{
														OFFSET 0.000000 0.000000 0.000000
													}
												}
											}
										}
									}
									JOINT RightHandIndex1
									{
										OFFSET -0.086752 10.030893 2.345280
										CHANNELS 3 Zrotation Yrotation Xrotation
										JOINT RightHandIndex2
										{
											OFFSET -0.000000 4.061090 0.000000
											CHANNELS 3 Zrotation Yrotation Xrotation
											JOINT RightHandIndex3
											{
												OFFSET -0.000000 3.248873 0.000000
												CHANNELS 3 Zrotation Yrotation Xrotation
												JOINT RightHandIndex4
												{
													OFFSET 0.000000 2.639709 -0.000000
													CHANNELS 3 Zrotation Yrotation Xrotation
													End Site
													{
														OFFSET 0.000000 0.000000 0.000000
													}
												}
											}
										}
									}
									JOINT RightHandMiddle1
									{
										OFFSET 0.104102 9.502952 0.006768
										CHANNELS 3 Zrotation Yrotation Xrotation
										JOINT RightHandMiddle2
										{
											OFFSET 0.000000 4.568727 0.000000
											CHANNELS 3 Zrotation Yrotation Xrotation
											JOINT RightHandMiddle3
											{
												OFFSET 0.000000 3.654981 -0.000000
												CHANNELS 3 Zrotation Yrotation Xrotation
												JOINT RightHandMiddle4
												{
													OFFSET -0.000000 2.741236 -0.000000
													CHANNELS 3 Zrotation Yrotation Xrotation
													End Site
													{
														OFFSET 0.000000 0.000000 0.000000
													}
												}
											}
										}
									}
									JOINT RightHandRing1
									{
										OFFSET 0.086752 8.921708 -2.267442
										CHANNELS 3 Zrotation Yrotation Xrotation
										JOINT RightHandRing2
										{
											OFFSET -0.000000 4.061090 0.000000
											CHANNELS 3 Zrotation Yrotation Xrotation
											JOINT RightHandRing3
											{
												OFFSET 0.000000 3.654981 -0.000000
												CHANNELS 3 Zrotation Yrotation Xrotation
												JOINT RightHandRing4
												{
													OFFSET 0.000000 2.741236 -0.000000
													CHANNELS 3 Zrotation Yrotation Xrotation
													End Site
													{
														OFFSET 0.000000 0.000000 0.000000
													}
												}
											}
										}
									}
									JOINT RightHandPinky1
									{
										OFFSET -0.173504 7.976997 -4.467199
										CHANNELS 3 Zrotation Yrotation Xrotation
										JOINT RightHandPinky2
										{
											OFFSET 0.000000 3.350399 -0.000000
											CHANNELS 3 Zrotation Yrotation Xrotation
											JOINT RightHandPinky3
											{
												OFFSET -0.000000 2.842763 0.000000
												CHANNELS 3 Zrotation Yrotation Xrotation
												JOINT RightHandPinky4
												{
													OFFSET -0.000000 2.639709 0.000000
													CHANNELS 3 Zrotation Yrotation Xrotation
													End Site
													{
														OFFSET 0.000000 0.000000 0.000000
													}
												}
											}
										}
									}
									JOINT RightForeArmEnd
									{
										OFFSET 0.000000 0.000000 0.000000
										CHANNELS 3 Zrotation Yrotation Xrotation
										End Site
										{
											OFFSET 0.000000 0.000000 0.000000
										}
									}
								}
								JOINT RightArmEnd
								{
									OFFSET 0.000000 0.000000 0.000000
									CHANNELS 3 Zrotation Yrotation Xrotation
									End Site
									{
										OFFSET 0.000000 0.000000 0.000000
									}
								}
							}
						}
					}
					JOINT LeftShoulder
					{
						OFFSET 2.625389 11.175210 0.000000
						CHANNELS 3 Zrotation Yrotation Xrotation
						JOINT LeftArm
						{
							OFFSET 0.000000 10.813635 -0.000000
							CHANNELS 3 Zrotation Yrotation Xrotation
							JOINT LeftForeArm
							{
								OFFSET 0.000000 28.724781 0.000000
								CHANNELS 3 Zrotation Yrotation Xrotation
								JOINT LeftHand
								{
									OFFSET 0.644384 25.716167 -0.328871
									CHANNELS 3 Zrotation Yrotation Xrotation
									JOINT LeftHandThumb1
									{
										OFFSET 2.867323 3.959563 2.944291
										CHANNELS 3 Zrotation Yrotation Xrotation
										JOINT LeftHandThumb2
										{
											OFFSET 0.000000 3.350399 0.000000
											CHANNELS 3 Zrotation Yrotation Xrotation
											JOINT LeftHandThumb3
											{
												OFFSET -0.000000 3.756509 0.000000
												CHANNELS 3 Zrotation Yrotation Xrotation
												JOINT LeftHandThumb4
												{
													OFFSET -0.000000 3.100000 0.000000
													CHANNELS 3 Zrotation Yrotation Xrotation
													End Site
													{
														OFFSET 0.000000 0.000000 0.000000
													}
												}
											}
										}
									}
									JOINT LeftHandIndex1
									{
										OFFSET 0.086752 10.030893 2.345280
										CHANNELS 3 Zrotation Yrotation Xrotation
										JOINT LeftHandIndex2
										{
											OFFSET -0.000000 4.061090 -0.000000
											CHANNELS 3 Zrotation Yrotation Xrotation
											JOINT LeftHandIndex3
											{
												OFFSET 0.000000 3.248873 -0.000000
												CHANNELS 3 Zrotation Yrotation Xrotation
												JOINT LeftHandIndex4
												{
													OFFSET 0.000000 2.639709 -0.000000
													CHANNELS 3 Zrotation Yrotation Xrotation
													End Site
													{
														OFFSET 0.000000 0.000000 0.000000
													}
												}
											}
										}
									}
									JOINT LeftHandMiddle1
									{
										OFFSET -0.104102 9.502952 0.006768
										CHANNELS 3 Zrotation Yrotation Xrotation
										JOINT LeftHandMiddle2
										{
											OFFSET -0.000000 4.568727 -0.000000
											CHANNELS 3 Zrotation Yrotation Xrotation
											JOINT LeftHandMiddle3
											{
												OFFSET 0.000000 3.654981 0.000000
												CHANNELS 3 Zrotation Yrotation Xrotation
												JOINT LeftHandMiddle4
												{
													OFFSET 0.000000 2.741236 -0.000000
													CHANNELS 3 Zrotation Yrotation Xrotation
													End Site
													{
														OFFSET 0.000000 0.000000 0.000000
													}
												}
											}
										}
									}
									JOINT LeftHandRing1
									{
										OFFSET -0.086752 8.921708 -2.267442
										CHANNELS 3 Zrotation Yrotation Xrotation
										JOINT LeftHandRing2
										{
											OFFSET 0.000000 4.061090 0.000000
											CHANNELS 3 Zrotation Yrotation Xrotation
											JOINT LeftHandRing3
											{
												OFFSET 0.000000 3.654981 0.000000
												CHANNELS 3 Zrotation Yrotation Xrotation
												JOINT LeftHandRing4
												{
													OFFSET 0.000000 2.741236 0.000000
													CHANNELS 3 Zrotation Yrotation Xrotation
													End Site
													{
														OFFSET 0.000000 0.000000 0.000000
													}
												}
											}
										}
									}
									JOINT LeftHandPinky1
									{
										OFFSET 0.173504 7.976997 -4.467199
										CHANNELS 3 Zrotation Yrotation Xrotation
										JOINT LeftHandPinky2
										{
											OFFSET -0.000000 3.350399 -0.000000
											CHANNELS 3 Zrotation Yrotation Xrotation
											JOINT LeftHandPinky3
											{
												OFFSET 0.000000 2.842763 0.000000
												CHANNELS 3 Zrotation Yrotation Xrotation
												JOINT LeftHandPinky4
												{
													OFFSET -0.000000 2.639709 -0.000000
													CHANNELS 3 Zrotation Yrotation Xrotation
													End Site
													{
														OFFSET 0.000000 0.000000 0.000000
													}
												}
											}
										}
									}
									JOINT LeftForeArmEnd
									{
										OFFSET 0.000000 0.000000 0.000000
										CHANNELS 3 Zrotation Yrotation Xrotation
										End Site
										{
											OFFSET 0.000000 0.000000 0.000000
										}
									}
								}
								JOINT LeftArmEnd
								{
									OFFSET 0.000000 0.000000 0.000000
									CHANNELS 3 Zrotation Yrotation Xrotation
									End Site
									{
										OFFSET 0.000000 0.000000 0.000000
									}
								}
							}
						}
					}
				}
			}
		}
	}
	JOINT RightUpLeg
	{
		OFFSET -11.289943 0.000000 0.000000
		CHANNELS 3 Zrotation Yrotation Xrotation
		JOINT RightLeg
		{
			OFFSET 0.000000 -38.200325 0.000000
			CHANNELS 3 Zrotation Yrotation Xrotation
			JOINT RightFoot
			{
				OFFSET -0.000000 -39.900856 -0.000000
				CHANNELS 3 Zrotation Yrotation Xrotation
				JOINT RightToeBase
				{
					OFFSET 0.000000 0.000000 15.261641
					CHANNELS 3 Zrotation Yrotation Xrotation
					JOINT RightToeBaseEnd
					{
						OFFSET 0.000000 0.000000 7.370709
						CHANNELS 3 Zrotation Yrotation Xrotation
						End Site
						{
							OFFSET 0.000000 0.000000 0.000000
						}
					}
				}
				JOINT RightLegEnd
				{
					OFFSET 0.000000 0.000000 0.000000
					CHANNELS 3 Zrotation Yrotation Xrotation
					End Site
					{
						OFFSET 0.000000 0.000000 0.000000
					}
				}
			}
			JOINT RightUpLegEnd
			{
				OFFSET 0.000000 0.000000 0.000000
				CHANNELS 3 Zrotation Yrotation Xrotation
				End Site
				{
					OFFSET 0.000000 0.000000 0.000000
				}
			}
		}
	}
	JOINT LeftUpLeg
	{
		OFFSET 11.315661 -0.000000 0.000000
		CHANNELS 3 Zrotation Yrotation Xrotation
		JOINT LeftLeg
		{
			OFFSET -0.000000 -38.200325 -0.000000
			CHANNELS 3 Zrotation Yrotation Xrotation
			JOINT LeftFoot
			{
				OFFSET 0.000000 -39.900856 -0.000000
				CHANNELS 3 Zrotation Yrotation Xrotation
				JOINT LeftToeBase
				{
					OFFSET -0.000000 -0.000000 15.261641
					CHANNELS 3 Zrotation Yrotation Xrotation
					JOINT LeftToeBaseEnd
					{
						OFFSET 0.000000 -0.000000 7.539996
						CHANNELS 3 Zrotation Yrotation Xrotation
						End Site
						{
							OFFSET 0.000000 0.000000 0.000000
						}
					}
				}
				JOINT LeftLegEnd
				{
					OFFSET 0.000000 0.000000 0.000000
					CHANNELS 3 Zrotation Yrotation Xrotation
					End Site
					{
						OFFSET 0.000000 0.000000 0.000000
					}
				}
			}
			JOINT LeftUpLegEnd
			{
				OFFSET 0.000000 0.000000 0.000000
				CHANNELS 3 Zrotation Yrotation Xrotation
				End Site
				{
					OFFSET 0.000000 0.000000 0.000000
				}
			}
		}
	}
}
MOTION
Frames: 4
Frame Time: 0.016667
0.256731 88.820404 2.979335 -0.167112 -0.663753 -10.302999 1.066626 0.044154 6.943307 -0.811781 0.347327 3.336068 0.210330 -0.539641 3.603790 -1.247418 0.307323 4.777268 2.992079 -0.437814 5.351811 0.494294 0.667101 -2.985561 -0.150668 -0.718566 -20.257870 0.000000 0.000000 0.000000 92.430161 0.041695 9.786963 68.790657 -24.760303 2.120497 0.130573 16.255154 28.911249 -6.790410 1.586431 -6.983404 16.103834 31.417011 65.876831 -4.042969 -4.975280 -9.076622 -2.894262 -3.267643 -6.133631 0.000000 0.000000 0.000000 -16.861107 -6.056127 10.751778 1.056008 0.566211 0.226346 0.800623 0.124264 0.268878 0.000000 0.000000 0.000000 -16.443499 -0.617978 5.969003 0.066665 0.534112 0.061058 0.379844 0.033977 0.066557 0.000000 0.000000 0.000000 -15.935012 7.221572 0.732392 0.135869 -1.030469 -0.215848 0.093767 -0.050535 -0.121235 0.000000 0.000000 0.000000 -16.085358 15.278226 -4.873937 0.079419 -2.021695 -0.738212 0.033821 -0.049876 -0.587425 0.000000 0.000000 0.000000 0.000000 0.000000 0.000000 0.000000 0.000000 0.000000 -90.159157 -0.008132 5.284123 -70.842964 17.407614 -6.568763 0.154236 -10.622228 53.834972 14.966339 0.862354 -12.239444 -14.754170 -31.933649 67.318390 2.364947 2.184744 -4.567562 1.560164 1.551657 -3.233010 0.000000 0.000000 0.000000 22.221216 -12.831281 17.353209 -0.669633 0.614197 -0.036934 -0.659163 0.148899 -0.107561 0.000000 0.000000 0.000000 21.825254 -7.383394 10.988185 -0.582077 0.547984 -0.046436 -0.773164 0.055826 -0.030675 0.000000 0.000000 0.000000 19.608175 1.038595 3.391154 -1.519502 -1.075334 0.160146 -1.627982 -0.073856 0.133912 0.000000 0.000000 0.000000 15.029830 10.705632 -4.426364 -2.771074 -2.095476 0.733527 -2.466798 -0.066217 0.678741 0.000000 0.000000 0.000000 0.000000 0.000000 0.000000 0.000000 0.000000 0.000000 -0.159529 -9.235222 14.113778 -0.070190 -0.658761 5.049301 -3.439403 -8.336820 17.889717 -0.791923 0.772058 -18.904556 0.000000 0.000000 0.000000 0.000000 0.000000 0.000000 0.000000 0.000000 0.000000 -1.150580 -6.579642 9.126657 0.066716 0.303519 10.001636 3.678367 -1.176604 17.189859 0.298622 -0.402549 -20.884220 0.000000 0.000000 0.000000 0.000000 0.000000 0.000000 0.000000 0.000000 0.000000 
0.248457 88.820656 2.958830 -0.149982 -0.657534 -10.335551 1.032373 0.049364 6.940289 -0.804716 0.354476 3.384915 0.171098 -0.540102 3.637686 -1.253908 0.312532 4.822951 3.154665 -0.533758 5.461777 0.524010 0.623435 -2.940770 -0.125857 -0.730702 -20.283222 0.000000 0.000000 0.000000 92.452606 0.044064 9.793513 68.843910 -24.770290 2.075576 0.152180 16.420942 29.171808 -7.467825 1.092621 -6.731151 16.049471 31.445827 65.951149 -3.956136 -4.856185 -8.875188 -2.831141 -3.192899 -5.994909 0.000000 0.000000 0.000000 -17.656328 -5.915364 10.952159 0.996766 0.562020 0.252639 0.740506 0.120867 0.294821 0.000000 0.000000 0.000000 -17.193373 -0.486678 6.122677 0.040144 0.533046 0.070437 0.345782 0.032755 0.075302 0.000000 0.000000 0.000000 -16.566713 7.327483 0.810153 0.156278 -1.029802 -0.228067 0.095634 -0.049788 -0.130001 0.000000 0.000000 0.000000 -16.534622 15.361525 -4.849617 0.145625 -2.021569 -0.761279 0.091800 -0.050803 -0.603863 0.000000 0.000000 0.000000 0.000000 0.000000 0.000000 0.000000 0.000000 0.000000 -90.240013 0.002586 5.288688 -70.713005 17.673975 -6.533810 0.162171 -10.645388 54.434284 15.556793 1.492108 -11.729076 -14.726830 -31.947771 67.355553 2.328918 2.128696 -4.464335 1.528606 1.510499 -3.165890 0.000000 0.000000 0.000000 22.694298 -12.891542 17.456028 -0.621182 0.611251 -0.052257 -0.616290 0.146400 -0.118738 0.000000 0.000000 0.000000 22.235647 -7.445600 11.085259 -0.550365 0.546453 -0.052654 -0.750422 0.054499 -0.036392 0.000000 0.000000 0.000000 19.978664 0.974300 3.446065 -1.516404 -1.074116 0.167413 -1.621988 -0.072933 0.140646 0.000000 0.000000 0.000000 15.325822 10.661621 -4.421531 -2.794030 -2.090542 0.748844 -2.491561 -0.063816 0.692192 0.000000 0.000000 0.000000 0.000000 0.000000 0.000000 0.000000 0.000000 0.000000 -0.170962 -9.268241 14.177791 -0.070545 -0.663664 4.970228 -3.456664 -8.291162 17.904827 -0.790064 0.774201 -18.897770 0.000000 0.000000 0.000000 0.000000 0.000000 0.000000 0.000000 0.000000 0.000000 -1.164393 -6.573298 9.161005 0.066746 0.301138 9.955109 3.678978 -1.148643 17.218578 0.298625 -0.399076 -20.891973 0.000000 0.000000 0.000000 0.000000 0.000000 0.000000 0.000000 0.000000 0.000000 
0.241296 88.821960 2.940872 -0.130939 -0.648917 -10.367709 0.996286 0.055212 6.937825 -0.796619 0.360083 3.419389 0.127817 -0.543017 3.685524 -1.249220 0.314344 4.860626 3.300530 -0.606180 5.570240 0.554375 0.604097 -2.895591 -0.111931 -0.744561 -20.290468 0.000000 0.000000 0.000000 92.487007 0.037657 9.793519 68.853706 -24.785635 2.071576 0.173728 16.582676 29.352501 -7.994174 0.739656 -6.522022 16.010265 31.469904 66.010185 -3.884760 -4.766560 -8.717795 -2.780611 -3.137841 -5.887713 0.000000 0.000000 0.000000 -18.311422 -5.798528 11.101527 0.953893 0.557687 0.280529 0.697396 0.117329 0.322572 0.000000 0.000000 0.000000 -17.808506 -0.378137 6.248167 0.019507 0.532142 0.080766 0.323639 0.031632 0.084669 0.000000 0.000000 0.000000 -17.063374 7.410650 0.893146 0.178296 -1.029459 -0.241703 0.102498 -0.049066 -0.139417 0.000000 0.000000 0.000000 -16.847900 15.425939 -4.791052 0.208033 -2.021280 -0.786580 0.147295 -0.051297 -0.622749 0.000000 0.000000 0.000000 0.000000 0.000000 0.000000 0.000000 0.000000 0.000000 -90.311089 0.016204 5.294506 -70.650726 17.839132 -6.483939 0.153944 -10.703338 54.959648 16.048929 1.872298 -11.254488 -14.712262 -31.958195 67.380569 2.305410 2.096381 -4.398352 1.508159 1.486200 -3.125223 0.000000 0.000000 0.000000 23.080036 -12.939160 17.519957 -0.580383 0.607211 -0.072334 -0.578253 0.142914 -0.134279 0.000000 0.000000 0.000000 22.554977 -7.493853 11.158289 -0.524557 0.544505 -0.060678 -0.731227 0.052768 -0.043472 0.000000 0.000000 0.000000 20.244186 0.927252 3.488415 -1.519458 -1.072293 0.177084 -1.622846 -0.071484 0.148965 0.000000 0.000000 0.000000 15.512068 10.637359 -4.412709 -2.828041 -2.083847 0.769562 -2.525598 -0.059807 0.710545 0.000000 0.000000 0.000000 0.000000 0.000000 0.000000 0.000000 0.000000 0.000000 -0.190213 -9.311994 14.232481 -0.070686 -0.668738 4.896880 -3.468227 -8.238973 17.909817 -0.788393 0.777569 -18.876001 0.000000 0.000000 0.000000 0.000000 0.000000 0.000000 0.000000 0.000000 0.000000 -1.170753 -6.551197 9.198064 0.066890 0.299042 9.900743 3.678391 -1.125198 17.249872 0.299682 -0.397412 -20.898489 0.000000 0.000000 0.000000 0.000000 0.000000 0.000000 0.000000 0.000000 0.000000 
0.237019 88.823235 2.924921 -0.105915 -0.642507 -10.395986 0.960961 0.061023 6.934304 -0.791406 0.365057 3.442752 0.085020 -0.545402 3.741783 -1.240635 0.313649 4.889284 3.406689 -0.646112 5.672045 0.582572 0.606569 -2.853461 -0.107801 -0.760190 -20.280750 0.000000 0.000000 0.000000 92.527504 0.023970 9.787254 68.826065 -24.776789 2.082745 0.193843 16.746714 29.496912 -8.323669 0.544266 -6.349361 15.984537 31.486969 66.051056 -3.836169 -4.705657 -8.610539 -2.746327 -3.101507 -5.815078 0.000000 0.000000 0.000000 -18.767523 -5.713525 11.199974 0.915093 0.553591 0.306334 0.656364 0.113987 0.348461 0.000000 0.000000 0.000000 -18.235247 -0.300475 6.343043 -0.003265 0.531382 0.090346 0.304524 0.030651 0.093317 0.000000 0.000000 0.000000 -17.384991 7.464470 0.978248 0.199147 -1.029265 -0.253676 0.111659 -0.048489 -0.147357 0.000000 0.000000 0.000000 -17.011354 15.467509 -4.705718 0.269705 -2.020875 -0.806978 0.201514 -0.051623 -0.638385 0.000000 0.000000 0.000000 0.000000 0.000000 0.000000 0.000000 0.000000 0.000000 -90.364555 0.029522 5.287239 -70.643501 17.885960 -6.450520 0.135115 -10.781713 55.469223 16.392946 2.067049 -10.813531 -14.705943 -31.965082 67.394409 2.293512 2.081212 -4.364254 1.497478 1.474100 -3.105535 0.000000 0.000000 0.000000 23.360470 -12.971632 17.559366 -0.549741 0.603257 -0.092486 -0.549304 0.139592 -0.149816 0.000000 0.000000 0.000000 22.775436 -7.527201 11.214437 -0.506039 0.542689 -0.068417 -0.717483 0.051093 -0.050274 0.000000 0.000000 0.000000 20.413017 0.895418 3.520775 -1.524718 -1.070550 0.186649 -1.624941 -0.070100 0.156853 0.000000 0.000000 0.000000 15.612621 10.625330 -4.399954 -2.863714 -2.077503 0.789928 -2.559883 -0.056065 0.728674 0.000000 0.000000 0.000000 0.000000 0.000000 0.000000 0.000000 0.000000 0.000000 -0.221572 -9.358679 14.267639 -0.070668 -0.673216 4.841662 -3.472742 -8.186771 17.902508 -0.787267 0.780906 -18.844645 0.000000 0.000000 0.000000 0.000000 0.000000 0.000000 0.000000 0.000000 0.000000 -1.180832 -6.516947 9.228986 0.067025 0.297472 9.842690 3.679433 -1.108290 17.282570 0.300492 -0.397203 -20.902786 0.000000 0.000000 0.000000 0.000000 0.000000 0.000000 0.000000 0.000000 0.000000 
